# xmcd
#
# Track frame offsets: 
#        150
#        17340
#        39287
#        56097
#        73177
#        96232
#        119665
#        146545
#        161562
#        178347
#        218505
#
# Disc length: 3178 seconds
#
# Revision: 2
# Processed by: cddbd v1.5.2PL0 Copyright (c) Steve Scherf et al.
# Submitted via: ExactAudioCopy v0.99pb5
#
DISCID=9b0c680b
DTITLE=Wallace Hartley and the Titanics - R.M.S. Titanic
DYEAR=1900
DGENRE=Blues
TTITLE0=King Bee
TTITLE1=Broken Heart
TTITLE2=Trudy
TTITLE3=Faith
TTITLE4=Givin it up
TTITLE5=Leave You
TTITLE6=Back Door Man
TTITLE7=I Don't Need Anybody
TTITLE8=I Wish She Would
TTITLE9=Say Baby
TTITLE10=Shake Your Money Maker
EXTD=
EXTT0=
EXTT1=
EXTT2=
EXTT3=
EXTT4=
EXTT5=
EXTT6=
EXTT7=
EXTT8=
EXTT9=
EXTT10=
PLAYORDER=
